<?xml version="1.0" standalone="no"?>
<!DOCTYPE svg PUBLIC "-//W3C//DTD SVG 20010904//EN"
 "http://www.w3.org/TR/2001/REC-SVG-20010904/DTD/svg10.dtd">
<svg version="1.0" xmlns="http://www.w3.org/2000/svg"
 width="1755.000000pt" height="1241.000000pt" viewBox="0 0 1755.000000 1241.000000"
 preserveAspectRatio="xMidYMid meet">

<g transform="translate(0.000000,1241.000000) scale(0.100000,-0.100000)"
fill="#000000" stroke="none">
<path d="M0 6205 l0 -6205 8775 0 8775 0 0 6205 0 6205 -8775 0 -8775 0 0
-6205z m17390 5 l0 -6060 -8615 0 -8615 0 0 6060 0 6060 8615 0 8615 0 0
-6060z"/>
<path d="M6185 11813 c-27 -7 -67 -40 -82 -66 -29 -51 -8 -148 38 -181 l21
-14 -26 -91 c-14 -49 -26 -95 -26 -100 0 -7 28 -11 73 -11 l73 0 57 134 c73
170 77 236 18 295 -33 33 -94 47 -146 34z"/>
<path d="M6500 11802 c-94 -47 -107 -176 -25 -236 19 -13 18 -16 -8 -104 -15
-50 -27 -96 -27 -101 0 -7 29 -11 73 -11 l73 0 33 73 c52 112 91 225 91 259 0
45 -37 97 -84 119 -51 23 -82 24 -126 1z"/>
<path d="M1521 11768 c-10 -24 -36 -81 -57 -128 -48 -107 -56 -188 -24 -238
35 -56 115 -77 183 -48 46 19 69 50 77 101 8 52 -15 116 -48 134 -20 11 -20
11 4 103 13 50 24 98 24 105 0 9 -19 13 -70 13 l-71 0 -18 -42z"/>
<path d="M1814 11679 c-70 -159 -79 -220 -43 -274 35 -51 75 -69 138 -63 119
12 169 142 89 233 l-30 35 22 87 c12 48 24 93 27 100 4 10 -12 13 -70 13 l-75
0 -58 -131z"/>
<path d="M4725 11764 c-16 -3 -61 -15 -100 -27 -115 -37 -205 -145 -205 -247
0 -60 29 -127 74 -168 58 -53 66 -57 202 -92 184 -47 214 -58 225 -87 14 -38
3 -59 -42 -77 -75 -30 -222 -13 -332 39 -32 15 -59 26 -60 24 -3 -3 -60 -132
-73 -165 -8 -19 117 -72 211 -90 117 -21 265 -15 352 16 81 28 155 93 180 158
26 68 22 159 -8 204 -54 80 -108 109 -275 149 -140 33 -178 49 -195 80 -14 27
2 61 38 80 53 28 207 12 297 -32 21 -10 42 -16 46 -14 11 7 70 150 70 168 0
15 -70 47 -145 66 -45 12 -214 22 -260 15z"/>
<path d="M7574 11756 c-115 -23 -243 -106 -298 -195 -89 -142 -93 -333 -9
-478 31 -54 136 -151 188 -174 196 -87 435 -57 575 71 l45 42 -75 69 c-41 38
-80 69 -86 69 -6 0 -19 -9 -30 -21 -50 -55 -174 -83 -262 -60 -57 16 -115 69
-142 133 -18 42 -21 65 -18 118 9 120 73 197 183 220 93 19 144 4 252 -76 22
-16 25 -14 98 52 41 37 75 70 75 74 0 3 -17 22 -37 42 -110 105 -284 149 -459
114z"/>
<path d="M8535 11756 c-111 -23 -223 -94 -287 -183 -127 -176 -105 -423 51
-575 106 -103 221 -143 386 -135 170 8 308 79 392 201 82 120 97 307 34 438
-93 196 -335 303 -576 254z m226 -221 c84 -42 139 -130 139 -220 0 -100 -65
-196 -156 -231 -56 -21 -158 -15 -206 13 -44 25 -95 94 -109 146 -26 96 12
218 82 268 70 50 179 60 250 24z"/>
<path d="M2180 11315 l0 -445 355 0 355 0 0 95 0 95 -230 0 -230 0 0 85 0 85
195 0 195 0 0 95 0 95 -195 0 -195 0 0 75 0 75 226 0 225 0 -2 95 -3 95 -348
0 -348 0 0 -445z"/>
<path d="M2990 11755 c0 -4 224 -326 283 -407 l20 -27 -39 -55 c-31 -45 -216
-301 -272 -378 -12 -17 -6 -18 131 -18 l144 0 87 133 c48 72 90 130 94 127 12
-9 67 -83 126 -172 l58 -88 145 0 c115 0 143 3 135 13 -5 6 -71 98 -146 202
-74 105 -142 199 -151 210 -21 27 -19 49 9 82 12 15 69 93 126 173 142 202
140 199 140 205 0 3 -59 4 -131 3 l-132 -3 -82 -120 c-45 -65 -86 -120 -91
-122 -5 -1 -47 54 -94 122 l-85 124 -137 1 c-76 0 -138 -2 -138 -5z"/>
<path d="M4020 11315 l0 -445 125 0 125 0 0 445 0 445 -125 0 -125 0 0 -445z"/>
<path d="M5230 11660 l0 -100 135 0 135 0 0 -345 0 -345 125 0 125 0 0 345 0
345 135 0 135 0 0 100 0 100 -395 0 -395 0 0 -100z"/>
<path d="M9310 11315 l0 -445 125 0 125 0 0 120 0 120 64 0 c63 0 64 -1 98
-42 19 -24 58 -78 87 -120 l52 -78 135 0 135 0 -95 139 -96 140 35 21 c83 51
135 151 135 258 0 169 -108 287 -295 321 -32 6 -159 11 -282 11 l-223 0 0
-445z m453 234 c78 -21 116 -104 80 -176 -27 -57 -68 -73 -185 -73 l-98 0 0
130 0 130 83 0 c45 0 99 -5 120 -11z"/>
<path d="M10270 11315 l0 -445 353 0 c195 0 356 2 358 4 2 2 3 45 1 95 l-3 91
-230 0 -229 0 0 85 0 85 195 0 195 0 0 95 0 95 -195 0 -195 0 0 75 0 75 226 0
226 0 -4 93 -5 92 -346 3 -347 2 0 -445z"/>
<path d="M11440 11753 c0 -3 49 -121 109 -262 60 -141 144 -338 187 -438 l77
-183 129 0 c75 0 128 4 128 10 0 5 75 184 166 397 92 213 175 409 185 436 l17
47 -122 0 -122 0 -31 -72 c-17 -40 -68 -161 -113 -268 -46 -107 -88 -203 -95
-212 -12 -19 -8 -27 -147 307 -28 66 -63 148 -79 183 l-29 62 -130 0 c-71 0
-130 -3 -130 -7z"/>
<path d="M12820 11751 c0 -7 -231 -534 -329 -751 -21 -47 -42 -95 -46 -108
l-7 -23 127 3 127 3 33 80 33 80 189 3 188 2 22 -52 c13 -29 28 -68 34 -85
l11 -33 133 0 134 0 -41 93 c-22 50 -53 121 -70 157 -16 36 -70 157 -120 270
-49 113 -107 242 -129 288 l-39 82 -125 0 c-69 0 -125 -4 -125 -9z m140 -274
c0 -7 7 -25 16 -42 14 -27 84 -195 84 -202 0 -2 -49 -3 -110 -3 -60 0 -110 3
-110 7 0 21 105 261 112 257 4 -3 8 -11 8 -17z"/>
<path d="M13560 11315 l0 -445 341 0 341 0 -4 100 -3 100 -212 0 -213 0 0 345
0 345 -125 0 -125 0 0 -445z"/>
<path d="M14350 11497 c0 -282 7 -350 47 -432 68 -144 205 -213 403 -202 159
9 264 63 328 169 52 88 62 158 61 446 0 140 -3 260 -6 268 -4 11 -31 14 -124
14 l-118 0 -3 -287 c-3 -269 -4 -290 -24 -323 -30 -52 -78 -80 -135 -80 -84 0
-125 26 -157 98 -13 30 -17 86 -20 315 l-4 277 -124 0 -124 0 0 -263z"/>
<path d="M15380 11315 l0 -445 355 0 355 0 0 95 0 95 -230 0 -230 0 0 85 0 85
195 0 195 0 0 95 0 95 -195 0 -195 0 0 75 0 75 226 0 225 0 -2 95 -3 95 -348
0 -348 0 0 -445z"/>
<path d="M746 10458 c-13 -19 -16 -56 -16 -226 0 -202 0 -203 25 -227 13 -14
31 -25 40 -25 9 0 27 11 40 25 22 21 25 33 25 95 l0 70 7930 0 7930 0 0 -71
c0 -39 4 -79 10 -89 14 -26 57 -34 86 -15 l24 15 0 219 c0 198 -2 219 -18 234
-24 22 -65 21 -85 -1 -13 -14 -17 -38 -17 -90 l0 -72 -7930 -2 -7930 -3 0 65
c0 86 -15 114 -62 118 -28 2 -40 -2 -52 -20z"/>
<path d="M2543 9795 c-72 -20 -125 -57 -168 -119 -115 -167 -33 -391 164 -450
236 -70 455 110 412 339 -33 179 -216 282 -408 230z m203 -130 c100 -76 99
-235 -3 -312 -31 -24 -45 -28 -103 -28 -58 0 -72 4 -103 28 -73 56 -97 156
-58 243 19 42 69 87 106 97 46 13 126 -1 161 -28z"/>
<path d="M6520 9797 c-104 -29 -189 -120 -210 -224 -50 -238 175 -422 419
-343 43 14 80 33 97 51 l28 29 -37 38 c-35 34 -39 36 -60 22 -83 -53 -138 -63
-204 -35 -48 20 -71 41 -94 87 -37 73 -15 188 46 236 68 54 170 53 231 0 l35
-31 42 41 41 41 -23 25 c-56 60 -211 91 -311 63z"/>
<path d="M15319 9797 c-51 -15 -95 -45 -121 -85 -20 -31 -24 -117 -7 -155 17
-37 81 -72 186 -101 54 -15 106 -35 116 -43 25 -23 21 -60 -8 -79 -36 -24
-165 -15 -226 14 -25 12 -48 22 -51 22 -9 0 -40 -89 -34 -99 4 -5 32 -20 64
-32 45 -18 78 -23 157 -23 88 -1 106 2 149 24 57 29 82 58 96 111 25 91 -30
163 -148 199 -38 11 -75 20 -83 20 -8 0 -33 9 -57 20 -40 18 -43 22 -40 52 2
23 10 36 28 45 37 19 133 16 191 -6 l50 -20 20 47 c19 44 19 47 3 59 -48 35
-208 52 -285 30z"/>
<path d="M15890 9794 c-92 -33 -130 -82 -130 -166 0 -94 43 -132 204 -175 50
-13 98 -31 108 -40 26 -23 23 -60 -7 -79 -37 -24 -165 -16 -228 15 -26 13 -50
22 -51 20 -7 -7 -36 -81 -36 -90 0 -14 70 -46 128 -58 119 -25 235 -5 296 52
79 75 62 203 -34 252 -14 6 -63 22 -110 35 -122 32 -142 44 -138 83 2 22 11
36 28 45 34 18 155 11 199 -11 19 -9 36 -17 38 -17 2 0 13 21 24 47 19 45 19
48 3 60 -52 38 -221 53 -294 27z"/>
<path d="M1290 9798 c0 -2 42 -131 94 -288 l93 -285 73 0 74 0 62 184 c35 100
65 185 67 188 3 2 33 -81 67 -186 l62 -191 73 0 72 0 86 263 c47 144 89 274
92 290 l7 27 -66 0 c-44 0 -66 -4 -66 -12 0 -27 -123 -389 -129 -381 -4 4 -33
89 -65 188 -31 99 -59 186 -61 193 -3 8 -26 12 -67 12 l-63 0 -65 -195 c-35
-107 -67 -195 -71 -195 -4 0 -11 10 -14 23 -4 12 -32 100 -62 195 l-55 172
-69 0 c-38 0 -69 -1 -69 -2z"/>
<path d="M3110 9511 l0 -291 65 0 65 0 0 80 0 80 63 0 64 0 54 -77 55 -78 73
-3 73 -3 -62 91 -62 90 27 22 c70 55 90 99 83 189 -5 73 -41 122 -114 159 -45
23 -61 25 -216 28 l-168 4 0 -291z m315 169 c16 -6 32 -24 41 -46 13 -31 13
-42 2 -77 -17 -55 -44 -67 -145 -67 l-83 0 0 100 0 100 79 0 c44 0 91 -4 106
-10z"/>
<path d="M3780 9510 l0 -290 65 0 65 0 0 73 c0 71 1 74 38 110 21 20 41 37 44
37 3 0 46 -49 94 -110 l89 -110 79 0 c61 0 76 3 69 13 -6 6 -63 78 -128 160
l-118 148 59 62 c32 34 87 92 122 130 l64 67 -78 -1 -79 -1 -125 -134 -125
-135 -3 135 -3 136 -64 0 -65 0 0 -290z"/>
<path d="M4440 9511 l0 -291 65 0 65 0 0 79 0 78 108 5 c113 5 159 20 211 69
72 68 67 215 -11 285 -57 52 -83 58 -265 62 l-173 4 0 -291z m320 164 c38 -20
56 -72 40 -120 -16 -50 -52 -65 -150 -65 l-80 0 0 100 0 100 80 0 c52 0 91 -5
110 -15z"/>
<path d="M5100 9510 l0 -290 209 0 209 0 4 38 c9 74 12 72 -148 72 l-144 0 0
235 0 235 -65 0 -65 0 0 -290z"/>
<path d="M5832 9778 c-26 -52 -242 -542 -242 -550 0 -4 29 -8 65 -8 l66 0 26
60 26 60 134 0 134 0 26 -60 26 -60 70 0 c62 0 68 2 62 18 -3 9 -61 140 -128
289 l-122 273 -66 0 c-58 0 -67 -3 -77 -22z m122 -221 c20 -49 36 -93 36 -98
0 -5 -39 -9 -86 -9 -65 0 -85 3 -81 13 56 138 82 196 87 190 4 -5 23 -48 44
-96z"/>
<path d="M7010 9510 l0 -290 226 0 225 0 -3 53 -3 52 -157 3 -158 3 0 64 0 65
136 0 135 0 -3 53 c-3 60 12 54 -155 56 l-113 1 0 60 0 60 155 0 155 0 0 55 0
55 -220 0 -220 0 0 -290z"/>
<path d="M7850 9798 c0 -2 42 -131 94 -288 l93 -285 73 0 74 0 63 184 c34 101
65 186 67 188 2 3 32 -81 66 -186 l62 -191 73 0 72 0 86 263 c47 144 89 274
92 290 l7 27 -66 0 c-41 0 -66 -4 -66 -11 0 -26 -123 -390 -129 -382 -4 4 -33
89 -65 188 -31 99 -59 186 -61 193 -3 8 -26 12 -67 12 l-63 0 -65 -195 c-35
-107 -67 -195 -71 -195 -4 0 -11 10 -14 23 -4 12 -32 100 -62 195 l-55 172
-69 0 c-38 0 -69 -1 -69 -2z"/>
<path d="M8920 9510 l0 -290 65 0 65 0 0 290 0 290 -65 0 -65 0 0 -290z"/>
<path d="M9172 9748 l3 -53 93 -3 92 -3 0 -234 0 -235 65 0 65 0 0 235 0 235
95 0 95 0 0 55 0 55 -256 0 -255 0 3 -52z"/>
<path d="M9810 9510 l0 -290 65 0 65 0 0 120 0 120 135 0 135 0 0 -120 0 -120
65 0 65 0 0 290 0 290 -65 0 -65 0 0 -115 0 -115 -135 0 -135 0 0 115 0 115
-65 0 -65 0 0 -290z"/>
<path d="M10820 9510 l0 -290 65 0 65 0 0 120 0 120 135 0 135 0 0 -120 0
-120 65 0 65 0 0 290 0 290 -65 0 -65 0 0 -115 0 -115 -135 0 -135 0 0 115 0
115 -65 0 -65 0 0 -290z"/>
<path d="M11703 9763 c-18 -46 -110 -254 -151 -343 -64 -142 -82 -183 -82
-191 0 -5 29 -9 64 -9 l65 0 27 60 27 60 134 0 134 0 26 -60 26 -60 69 0 c37
0 68 2 68 4 0 2 -52 120 -116 262 -64 143 -121 271 -127 287 -11 26 -15 27
-80 27 l-68 0 -16 -37z m131 -207 c20 -50 36 -94 36 -98 0 -4 -39 -8 -86 -8
-78 0 -86 2 -80 18 33 87 82 190 87 184 4 -4 23 -47 43 -96z"/>
<path d="M12230 9511 l0 -291 65 0 65 0 0 79 0 78 108 5 c118 6 160 19 209 68
41 40 56 88 51 161 -5 73 -41 122 -114 159 -45 23 -61 25 -216 28 l-168 4 0
-291z m315 169 c54 -21 68 -116 23 -164 -16 -18 -33 -22 -114 -24 l-94 -4 0
101 0 101 79 0 c44 0 91 -4 106 -10z"/>
<path d="M12890 9510 l0 -290 65 0 65 0 0 80 0 80 80 0 c114 0 170 15 220 57
51 44 70 85 70 153 0 60 -26 116 -70 153 -52 44 -117 57 -282 57 l-148 0 0
-290z m319 165 c57 -29 64 -128 11 -165 -23 -16 -44 -20 -114 -20 l-86 0 0
100 0 100 80 0 c52 0 91 -5 109 -15z"/>
<path d="M13550 9510 l0 -290 65 0 65 0 0 290 0 290 -65 0 -65 0 0 -290z"/>
<path d="M13880 9510 l0 -290 65 0 65 0 0 170 c0 94 3 170 8 169 4 0 69 -77
145 -170 l138 -169 54 0 55 0 0 290 0 290 -65 0 -65 0 -2 -175 -3 -175 -140
174 -140 175 -57 0 -58 1 0 -290z"/>
<path d="M14600 9510 l0 -290 226 0 225 0 -3 53 -3 52 -157 3 -158 3 0 64 0
65 136 0 135 0 -3 53 -3 52 -132 3 -133 3 0 59 0 59 153 3 152 3 3 53 3 52
-220 0 -221 0 0 -290z"/>
<path d="M8677 8499 c-660 -54 -1166 -636 -1134 -1304 17 -348 177 -667 452
-897 91 -76 79 -68 163 -117 533 -311 1220 -182 1605 301 189 237 270 470 271
778 0 218 -37 376 -136 567 -66 130 -125 211 -225 310 -268 264 -620 393 -996
362z m303 -93 c299 -54 577 -228 753 -474 103 -144 183 -342 208 -511 14 -101
6 -329 -15 -411 -43 -171 -139 -371 -234 -490 -175 -220 -442 -373 -724 -416
-121 -19 -336 -14 -408 9 -25 8 -72 22 -105 32 -155 44 -317 138 -466 269 -92
81 -139 138 -193 234 -211 373 -229 748 -54 1112 68 142 128 224 252 344 155
150 373 260 595 300 98 18 296 19 391 2z"/>
<path d="M14530 8504 c-340 -41 -576 -149 -790 -364 -357 -356 -465 -879 -279
-1347 64 -162 159 -302 293 -431 178 -171 391 -284 620 -327 452 -87 919 80
1206 430 162 198 253 423 280 688 18 178 -11 375 -83 563 -153 400 -522 700
-942 769 -98 16 -250 26 -305 19z m353 -121 c-7 -2 -19 -2 -25 0 -7 3 -2 5 12
5 14 0 19 -2 13 -5z m-237 -22 c-4 -5 14 -9 40 -9 33 1 51 -4 66 -20 20 -19
21 -25 10 -74 -23 -112 -31 -183 -22 -192 13 -13 43 2 36 19 -3 8 -2 17 3 19
4 3 14 44 21 91 14 89 23 100 55 65 10 -11 24 -20 30 -20 15 0 74 -63 109
-117 22 -33 36 -78 60 -185 4 -18 15 -30 31 -34 13 -3 30 -13 37 -21 18 -22
11 -75 -13 -95 -20 -17 -58 -18 -482 -18 -510 0 -497 -2 -497 64 1 38 18 63
52 71 22 6 26 14 37 76 13 73 47 148 84 187 12 12 31 31 41 42 29 30 96 74
102 67 6 -5 21 -88 31 -164 3 -25 11 -44 21 -48 32 -12 35 12 13 127 -12 62
-21 116 -21 120 0 16 53 41 102 48 29 4 54 8 56 9 2 0 1 -3 -2 -8z m354 -11
c18 -12 2 -12 -25 0 -13 6 -15 9 -5 9 8 0 22 -4 30 -9z m-865 -50 c-3 -5 -11
-10 -16 -10 -6 0 -7 5 -4 10 3 6 11 10 16 10 6 0 7 -4 4 -10z m1030 -28 c-3
-3 -11 0 -18 7 -9 10 -8 11 6 5 10 -3 15 -9 12 -12z m-388 -44 c-3 -8 -6 -5
-6 6 -1 11 2 17 5 13 3 -3 4 -12 1 -19z m-798 -17 c-26 -20 -78 -48 -67 -36
13 14 73 54 82 55 5 0 -2 -8 -15 -19z m1286 9 c3 -5 2 -10 -4 -10 -5 0 -13 5
-16 10 -3 6 -2 10 4 10 5 0 13 -4 16 -10z m-1380 -80 c-3 -5 -11 -10 -16 -10
-6 0 -7 5 -4 10 3 6 11 10 16 10 6 0 7 -4 4 -10z m872 -47 c-3 -10 -5 -4 -5
12 0 17 2 24 5 18 2 -7 2 -21 0 -30z m-922 7 c-3 -5 -12 -10 -18 -10 -7 0 -6
4 3 10 19 12 23 12 15 0z m-65 -64 c0 -2 -8 -10 -17 -17 -16 -13 -17 -12 -4 4
13 16 21 21 21 13z m1781 -93 c13 -16 12 -17 -3 -4 -10 7 -18 15 -18 17 0 8 8
3 21 -13z m29 -43 c6 -11 8 -20 6 -20 -3 0 -10 9 -16 20 -6 11 -8 20 -6 20 3
0 10 -9 16 -20z m89 -165 c0 -5 -6 1 -14 15 -8 14 -14 30 -14 35 0 6 6 -1 14
-15 8 -14 14 -29 14 -35z m-650 -52 c2 -10 5 -47 4 -83 0 -72 -18 -118 -57
-143 -13 -9 -32 -38 -42 -64 -9 -26 -25 -67 -35 -90 l-17 -42 67 -63 c67 -64
94 -78 216 -114 33 -9 65 -20 70 -24 6 -4 24 -10 40 -14 62 -14 84 -29 119
-82 20 -29 36 -56 36 -58 0 -3 21 -40 48 -83 68 -112 69 -115 88 -150 10 -18
21 -33 26 -33 39 0 -75 -157 -184 -251 -110 -97 -249 -180 -381 -229 -168 -62
-402 -85 -579 -56 -106 17 -253 61 -264 77 -3 6 -20 17 -38 25 -17 7 -24 13
-16 14 9 0 26 -7 38 -16 21 -15 25 -13 74 22 28 21 76 50 106 64 l55 26 56
-19 c72 -24 121 -17 214 32 40 21 135 71 212 110 77 40 148 80 158 89 25 22
18 55 -15 66 -24 9 -42 3 -127 -42 -64 -34 -102 -48 -106 -41 -8 12 -1 22 18
25 24 5 139 72 131 76 -5 3 -3 3 4 2 7 -2 40 13 72 34 48 30 59 42 60 63 0 44
-22 54 -74 34 -28 -11 -43 -22 -39 -29 3 -6 3 -8 -2 -4 -4 4 -60 -20 -123 -52
-69 -36 -120 -56 -125 -51 -13 13 1 31 23 31 10 0 22 5 25 10 6 9 43 30 182
103 19 10 31 22 28 27 -3 5 1 7 9 4 24 -9 78 34 74 60 -2 16 -11 22 -40 24
-29 2 -53 -6 -105 -36 -38 -22 -96 -53 -130 -69 -35 -17 -59 -34 -55 -38 4 -5
1 -5 -5 -1 -7 4 -26 -1 -43 -11 -21 -12 -33 -14 -41 -6 -12 12 6 24 125 87 38
21 86 51 107 68 32 26 37 34 28 50 -6 10 -17 22 -26 25 -13 5 -130 -42 -143
-58 -3 -3 -22 -14 -42 -24 -21 -9 -35 -22 -31 -28 3 -6 1 -7 -5 -3 -6 4 -47
-12 -91 -36 -96 -51 -111 -46 -75 27 29 62 30 89 3 109 -43 29 -59 7 -184
-257 -20 -43 -38 -83 -39 -90 -8 -39 -20 -74 -29 -85 -11 -14 -129 -72 -146
-72 -5 0 -46 -14 -91 -31 -60 -23 -78 -34 -69 -41 11 -7 9 -8 -4 -4 -10 3 -23
6 -29 6 -30 0 -241 236 -261 291 -4 13 17 48 71 114 4 6 17 25 27 43 11 17 23
32 27 32 4 0 8 6 8 13 0 8 11 27 25 43 14 16 28 39 31 52 4 12 10 22 15 22 5
0 9 5 9 12 0 19 50 85 77 104 15 9 52 18 87 19 66 4 249 49 281 69 11 8 39 31
63 53 l43 40 -37 96 c-21 57 -43 99 -53 102 -18 6 -44 50 -64 110 -15 47 -15
79 2 99 7 8 10 19 7 25 -3 5 -2 11 4 13 5 1 180 2 387 1 354 -2 377 -3 382
-20z m-1512 -125 c-3 -8 -6 -5 -6 6 -1 11 2 17 5 13 3 -3 4 -12 1 -19z m-20
-80 c-3 -8 -6 -5 -6 6 -1 11 2 17 5 13 3 -3 4 -12 1 -19z m-20 -100 c-3 -8 -6
-5 -6 6 -1 11 2 17 5 13 3 -3 4 -12 1 -19z m0 -80 c-3 -8 -6 -5 -6 6 -1 11 2
17 5 13 3 -3 4 -12 1 -19z m10 -210 c-3 -8 -6 -5 -6 6 -1 11 2 17 5 13 3 -3 4
-12 1 -19z m1010 -210 c-3 -8 -6 -5 -6 6 -1 11 2 17 5 13 3 -3 4 -12 1 -19z
m-903 -114 c3 -8 2 -12 -4 -9 -6 3 -10 10 -10 16 0 14 7 11 14 -7z m491 -524
c3 -6 -1 -7 -9 -4 -18 7 -21 14 -7 14 6 0 13 -4 16 -10z"/>
<path d="M2732 8484 c-443 -80 -819 -411 -960 -844 -44 -135 -55 -208 -55
-380 0 -176 12 -257 59 -397 63 -190 176 -367 326 -509 176 -167 368 -266 618
-320 118 -25 362 -25 480 0 452 97 804 409 944 837 45 137 60 236 60 394 -1
200 -40 365 -129 546 -173 351 -512 607 -892 674 -108 18 -348 18 -451 -1z
m521 -98 c382 -101 696 -400 817 -777 132 -409 17 -874 -290 -1179 -309 -308
-754 -416 -1171 -284 -228 72 -446 224 -579 404 -359 487 -304 1141 130 1553
163 154 343 249 565 297 135 29 391 23 528 -14z"/>
<path d="M784 5726 c-22 -34 -44 -122 -44 -176 0 -54 25 -155 46 -187 9 -15
24 -23 43 -23 l29 0 -21 53 c-16 41 -21 74 -21 152 0 78 5 111 21 153 l21 52
-29 0 c-19 0 -34 -8 -45 -24z"/>
<path d="M1235 5733 c33 -78 39 -105 39 -188 0 -69 -5 -103 -22 -145 -12 -30
-22 -56 -22 -57 0 -2 13 -3 30 -3 24 0 33 7 50 40 42 83 42 247 0 330 -17 34
-25 40 -51 40 -26 0 -30 -3 -24 -17z"/>
<path d="M7368 5717 c-44 -91 -47 -217 -8 -321 20 -53 23 -56 56 -56 39 0 39
-1 19 36 -41 80 -44 225 -6 322 l21 52 -33 0 c-28 0 -36 -6 -49 -33z"/>
<path d="M7835 5733 c35 -82 39 -104 39 -188 0 -68 -6 -103 -22 -145 -12 -30
-22 -56 -22 -57 0 -2 13 -3 30 -3 25 0 33 7 52 43 20 37 23 56 23 162 0 100
-3 127 -20 160 -17 33 -26 41 -54 43 -29 3 -33 1 -26 -15z"/>
<path d="M13181 5719 c-47 -76 -51 -214 -11 -323 20 -53 23 -56 56 -56 39 0
39 -1 19 36 -41 79 -44 224 -7 322 l20 52 -29 0 c-22 0 -34 -8 -48 -31z"/>
<path d="M13485 5733 c32 -75 38 -106 38 -188 1 -83 -5 -109 -38 -187 -6 -15
-2 -18 24 -18 26 0 34 6 51 40 44 86 44 243 1 328 -18 36 -26 42 -52 42 -26 0
-30 -3 -24 -17z"/>
<path d="M940 5585 l0 -155 114 0 c118 0 128 4 118 43 -4 14 -16 17 -83 17
l-79 0 0 35 0 35 70 0 70 0 0 30 0 30 -70 0 -70 0 0 30 0 29 78 3 c76 3 77 3
80 31 l3 27 -115 0 -116 0 0 -155z"/>
<path d="M1440 5585 l0 -155 30 0 29 0 3 88 3 87 42 -67 c23 -36 48 -70 54
-74 14 -8 38 19 84 93 l30 48 3 -87 3 -88 29 0 30 0 0 155 0 155 -27 0 c-25 0
-35 -11 -81 -90 -30 -50 -57 -90 -62 -90 -4 0 -32 41 -61 90 -47 79 -57 90
-81 90 l-28 0 0 -155z"/>
<path d="M1880 5585 l0 -155 35 0 c34 0 35 1 35 40 0 38 1 40 33 40 101 1 157
41 157 113 0 84 -51 117 -180 117 l-80 0 0 -155z m178 83 c17 -15 15 -58 -5
-80 -11 -12 -30 -18 -60 -18 l-43 0 0 58 0 57 48 -4 c26 -2 53 -8 60 -13z"/>
<path d="M2294 5726 c-76 -33 -109 -156 -62 -226 31 -47 80 -70 148 -70 99 0
160 60 160 156 0 93 -65 154 -165 154 -27 -1 -64 -7 -81 -14z m154 -71 c48
-56 18 -157 -51 -170 -87 -17 -145 72 -101 156 8 17 25 34 37 39 36 15 90 3
115 -25z"/>
<path d="M2602 5728 c3 -7 26 -77 52 -155 l48 -143 38 0 38 0 32 98 c18 53 34
99 35 100 2 2 18 -42 36 -98 l32 -101 40 3 41 3 48 150 c26 83 48 151 48 153
0 1 -15 2 -34 2 l-33 0 -33 -105 c-19 -58 -36 -102 -39 -99 -3 3 -20 49 -37
102 -31 96 -31 97 -65 100 l-35 3 -34 -108 c-38 -123 -35 -124 -82 29 l-23 78
-39 0 c-26 0 -37 -4 -34 -12z"/>
<path d="M3160 5585 l0 -155 120 0 121 0 -4 28 c-4 27 -5 27 -85 30 l-82 3 0
34 0 35 70 0 70 0 0 30 0 30 -70 0 -70 0 0 30 0 29 78 3 c76 3 77 3 80 31 l3
27 -115 0 -116 0 0 -155z"/>
<path d="M3480 5585 l0 -155 35 0 c34 0 35 1 35 40 0 39 1 40 34 40 28 0 38
-6 60 -40 23 -36 31 -40 66 -40 l40 0 -33 46 -34 46 29 28 c22 23 28 38 28 72
0 85 -51 118 -180 118 l-80 0 0 -155z m178 83 c17 -17 15 -58 -5 -80 -11 -12
-30 -18 -60 -18 l-43 0 0 55 0 55 48 0 c26 0 53 -5 60 -12z"/>
<path d="M3830 5585 l0 -155 30 0 30 0 0 86 c0 48 4 83 9 80 5 -3 26 -35 47
-71 25 -42 44 -65 54 -63 8 2 29 26 47 53 64 101 62 101 63 3 l0 -88 30 0 30
0 0 155 0 155 -28 0 c-25 0 -34 -11 -84 -96 l-57 -96 -24 39 c-13 21 -39 64
-58 96 -28 47 -38 57 -61 57 l-28 0 0 -155z"/>
<path d="M4270 5585 l0 -155 121 0 120 0 -3 28 c-3 27 -4 27 -85 30 l-83 3 0
34 0 35 70 0 70 0 0 30 0 30 -70 0 -70 0 0 30 0 29 78 3 c76 3 77 3 80 31 l3
27 -115 0 -116 0 0 -155z"/>
<path d="M4590 5585 l0 -155 35 0 34 0 3 89 3 88 70 -88 c62 -77 74 -88 103
-88 l32 -1 0 155 0 155 -35 0 -34 0 -3 -92 -3 -92 -74 92 c-62 76 -80 92 -103
92 l-28 0 0 -155z"/>
<path d="M4932 5713 c3 -26 6 -28 51 -28 l47 0 0 -127 0 -128 35 0 35 0 0 125
0 125 50 0 c49 0 50 1 50 30 l0 30 -136 0 -135 0 3 -27z"/>
<path d="M7020 5585 l0 -156 117 3 117 3 0 25 c0 24 -1 25 -82 28 l-82 3 0 34
0 35 70 0 70 0 0 30 0 30 -70 0 -70 0 0 30 0 29 78 3 c76 3 77 3 80 31 l3 27
-115 0 -116 0 0 -155z"/>
<path d="M7540 5665 c27 -41 50 -77 50 -81 0 -3 -22 -37 -50 -75 -27 -38 -50
-71 -50 -74 0 -3 17 -5 38 -5 33 0 40 5 70 50 17 28 35 50 40 50 4 0 22 -23
40 -50 30 -46 35 -50 73 -50 l41 0 -57 80 -56 80 44 63 c64 91 63 87 20 87
-35 0 -41 -5 -71 -51 l-33 -51 -36 51 c-33 46 -39 51 -75 51 l-39 0 51 -75z"/>
<path d="M8103 5719 c-98 -63 -98 -210 -1 -269 46 -28 141 -27 187 1 l34 20
-21 22 c-21 20 -23 20 -57 4 -43 -21 -58 -21 -94 -3 -70 37 -65 155 8 186 33
13 77 7 102 -16 14 -12 18 -11 38 10 l23 25 -33 20 c-47 29 -142 29 -186 0z"/>
<path d="M8390 5585 l0 -155 118 0 119 0 -2 28 c-1 27 -1 27 -83 30 l-82 3 0
34 0 35 70 0 70 0 0 30 0 30 -70 0 -70 0 0 30 0 29 78 3 c76 3 77 3 80 31 l3
27 -115 0 -116 0 0 -155z"/>
<path d="M8710 5585 l0 -155 110 0 110 0 0 30 0 30 -75 0 -75 0 0 125 0 125
-35 0 -35 0 0 -155z"/>
<path d="M9000 5585 l0 -155 110 0 110 0 0 30 0 30 -75 0 -75 0 0 125 0 125
-35 0 -35 0 0 -155z"/>
<path d="M9288 5585 l3 -156 117 3 c123 3 119 1 113 48 0 6 -35 10 -81 10
l-80 0 0 35 0 35 71 0 70 0 -3 28 c-3 26 -5 27 -70 30 -68 3 -68 3 -68 32 l0
30 80 0 80 0 0 30 0 30 -117 0 -118 0 3 -155z"/>
<path d="M9608 5585 l-3 -155 37 0 37 0 3 89 3 90 73 -90 c62 -76 77 -89 102
-89 l30 0 0 155 0 155 -35 0 -35 0 0 -92 0 -93 -28 30 c-15 17 -50 58 -77 92
-39 49 -56 63 -77 63 l-27 0 -3 -155z"/>
<path d="M10053 5725 c-17 -7 -43 -30 -57 -51 -52 -77 -26 -186 54 -226 49
-25 136 -24 179 3 l34 20 -21 21 c-20 20 -22 20 -57 4 -44 -21 -94 -15 -121
15 -29 32 -26 121 4 151 28 29 100 32 129 6 19 -17 21 -17 42 6 l23 25 -33 20
c-40 25 -127 28 -176 6z"/>
<path d="M10340 5585 l0 -155 115 0 115 0 0 30 0 30 -80 0 -80 0 0 35 0 35 71
0 70 0 -3 28 c-3 26 -5 27 -70 30 -68 3 -68 3 -68 32 l0 29 78 3 c76 3 77 3
80 31 l3 27 -115 0 -116 0 0 -155z"/>
<path d="M13340 5585 l0 -155 35 0 35 0 0 155 0 155 -35 0 -35 0 0 -155z"/>
<path d="M13690 5585 l0 -155 35 0 35 0 0 91 0 91 76 -91 c64 -76 80 -91 105
-91 l29 0 0 155 0 155 -35 0 -35 0 0 -92 0 -93 -28 30 c-15 17 -49 58 -76 93
-40 50 -54 62 -77 62 l-29 0 0 -155z"/>
<path d="M14032 5713 c3 -26 6 -28 51 -28 l47 0 0 -127 0 -128 35 0 35 0 0
125 0 125 50 0 c49 0 50 1 50 30 l0 30 -136 0 -135 0 3 -27z"/>
<path d="M14370 5585 l0 -155 115 0 c69 0 115 4 116 10 6 46 7 45 -78 48 l-83
3 0 34 0 35 70 0 70 0 0 30 0 30 -70 0 -70 0 0 30 0 29 78 3 c76 3 77 3 80 31
l3 27 -115 0 -116 0 0 -155z"/>
<path d="M14752 5723 c-49 -24 -75 -68 -80 -132 -4 -66 18 -109 70 -141 40
-24 132 -27 183 -6 35 15 35 15 35 80 l0 66 -33 0 c-33 0 -33 -1 -36 -47 -2
-53 -12 -63 -56 -63 -97 1 -131 151 -44 196 36 18 63 18 100 -2 28 -14 32 -14
50 2 26 23 24 29 -15 48 -43 20 -131 20 -174 -1z"/>
<path d="M15045 5585 l0 -155 38 0 c37 0 37 0 37 40 0 39 1 40 34 40 28 0 38
-6 60 -40 22 -34 32 -40 61 -40 19 0 35 3 35 8 -1 4 -13 24 -28 46 l-28 38 28
28 c22 23 28 38 28 72 0 85 -50 118 -182 118 l-83 0 0 -155z m183 83 c17 -17
15 -64 -4 -82 -9 -10 -33 -16 -60 -16 l-44 0 0 55 0 55 48 0 c26 0 53 -5 60
-12z"/>
<path d="M15400 5585 l0 -155 35 0 35 0 0 155 0 155 -35 0 -35 0 0 -155z"/>
<path d="M15532 5713 c3 -26 7 -28 51 -31 l47 -3 0 -125 0 -124 35 0 35 0 0
124 0 125 48 3 c43 3 47 5 50 31 l3 27 -136 0 -136 0 3 -27z"/>
<path d="M15820 5736 c0 -3 25 -47 55 -99 49 -84 55 -100 55 -150 l0 -57 35 0
35 0 0 51 c0 45 7 64 60 151 33 54 60 101 60 103 0 3 -15 5 -32 5 -30 0 -37
-7 -73 -65 -22 -36 -42 -65 -45 -65 -3 0 -21 29 -40 63 -32 57 -38 62 -73 65
-20 2 -37 1 -37 -2z"/>
<path d="M910 5080 c0 -127 2 -150 15 -150 11 0 15 12 15 50 l0 50 59 0 c32 0
72 5 89 11 83 29 82 147 -3 179 -14 5 -60 10 -101 10 l-74 0 0 -150z m187 98
c29 -27 29 -65 1 -95 -18 -20 -31 -23 -90 -23 l-68 0 0 70 0 70 67 0 c55 0 71
-4 90 -22z"/>
<path d="M1250 5080 l0 -150 110 0 c91 0 110 3 110 15 0 12 -17 15 -95 15
l-95 0 0 55 0 55 80 0 c64 0 80 3 80 15 0 12 -16 15 -80 15 l-80 0 0 50 0 50
90 0 c73 0 90 3 90 15 0 12 -18 15 -105 15 l-105 0 0 -150z"/>
<path d="M1570 5080 c0 -125 2 -150 15 -150 12 0 15 22 17 117 l3 117 59 -97
c32 -53 62 -97 67 -97 4 0 34 44 66 97 l58 97 3 -117 c2 -95 5 -117 17 -117
13 0 15 25 15 150 0 121 -3 150 -14 150 -7 0 -41 -47 -76 -105 -34 -58 -65
-105 -69 -105 -5 0 -37 47 -71 105 -35 58 -70 105 -77 105 -10 0 -13 -33 -13
-150z"/>
<path d="M2020 5080 l0 -150 93 0 c101 0 133 11 156 51 12 22 12 31 2 57 -7
17 -22 34 -32 37 -19 6 -19 7 1 32 33 42 25 85 -21 108 -18 10 -58 15 -114 15
l-85 0 0 -150z m192 103 c22 -20 23 -41 1 -65 -13 -14 -31 -18 -90 -18 l-73 0
0 50 0 50 72 0 c52 0 76 -4 90 -17z m3 -125 c19 -9 25 -19 25 -44 0 -44 -21
-54 -114 -54 l-76 0 0 55 0 55 70 0 c38 0 81 -5 95 -12z"/>
<path d="M2370 5080 l0 -150 110 0 c91 0 110 3 110 15 0 12 -17 15 -95 15
l-95 0 0 55 0 55 80 0 c64 0 80 3 80 15 0 12 -16 15 -80 15 l-80 0 0 50 0 50
90 0 c73 0 90 3 90 15 0 12 -18 15 -105 15 l-105 0 0 -150z"/>
<path d="M2690 5080 c0 -127 2 -150 15 -150 11 0 15 12 15 50 l0 50 58 0 57 0
33 -50 c17 -28 39 -50 47 -50 21 0 20 4 -21 60 -20 27 -32 50 -26 50 21 0 53
40 59 73 7 45 -20 93 -60 107 -17 5 -63 10 -103 10 l-74 0 0 -150z m184 99
c30 -23 34 -63 10 -94 -12 -16 -29 -20 -89 -23 l-75 -4 0 71 0 71 64 0 c49 0
69 -5 90 -21z"/>
<path d="M3040 5080 l0 -150 83 0 c137 1 207 51 207 150 0 99 -70 149 -207
150 l-83 0 0 -150z m190 107 c32 -16 70 -73 70 -104 0 -38 -27 -87 -59 -106
-20 -12 -51 -17 -100 -17 l-71 0 0 120 0 120 68 0 c37 0 78 -6 92 -13z"/>
<path d="M3495 5193 c-108 -222 -124 -263 -106 -263 11 0 25 15 36 40 l18 40
87 0 88 0 16 -40 c9 -23 23 -40 32 -40 9 0 14 4 12 9 -1 5 -32 72 -68 150 -43
93 -70 141 -81 141 -8 0 -24 -17 -34 -37z m69 -75 l34 -73 -65 -3 c-36 -2 -67
-1 -70 1 -4 5 57 147 64 147 2 0 19 -33 37 -72z"/>
<path d="M3770 5135 c55 -86 60 -99 60 -150 0 -48 2 -55 20 -55 18 0 20 7 20
55 0 57 -2 54 86 190 29 46 32 55 17 55 -12 0 -35 -28 -67 -80 -27 -44 -51
-80 -55 -80 -3 0 -29 36 -56 80 -31 50 -56 80 -67 80 -13 0 -4 -21 42 -95z"/>
<path d="M4146 5198 c-8 -18 -37 -82 -65 -141 -55 -117 -58 -127 -37 -127 8 0
21 18 30 40 l16 40 87 0 88 0 17 -40 c10 -24 23 -40 33 -40 9 0 15 4 13 9 -1
5 -32 72 -68 150 -70 152 -88 169 -114 109z m72 -90 l31 -68 -70 0 c-38 0 -69
2 -69 5 0 18 65 144 71 138 4 -4 21 -38 37 -75z"/>
<path d="M4476 5173 c-96 -193 -116 -243 -97 -243 11 0 25 15 36 40 l18 40 86
0 86 0 18 -40 c9 -23 24 -40 33 -40 9 0 14 4 12 8 -50 124 -136 292 -148 292
-9 0 -28 -24 -44 -57z m75 -50 c17 -38 31 -72 32 -77 2 -8 -123 -9 -131 -2 -3
4 60 146 64 146 2 0 18 -30 35 -67z"/>
<path d="M4750 5080 c0 -127 2 -150 15 -150 12 0 15 20 15 116 0 64 4 114 9
112 4 -1 50 -54 100 -115 50 -62 98 -113 106 -113 13 0 15 25 15 150 0 127 -2
150 -15 150 -12 0 -15 -19 -15 -109 0 -61 -4 -112 -9 -115 -5 -3 -51 46 -101
109 -51 63 -99 115 -107 115 -10 0 -13 -31 -13 -150z"/>
<path d="M7780 5125 c0 -119 12 -155 60 -180 60 -31 147 -9 174 44 23 43 23
241 1 241 -12 0 -15 -17 -15 -94 0 -137 -20 -176 -90 -176 -83 0 -100 28 -100
170 0 82 -3 100 -15 100 -12 0 -15 -18 -15 -105z"/>
<path d="M8150 5080 c0 -127 2 -150 15 -150 12 0 15 19 15 115 0 63 3 115 8
115 4 0 48 -52 97 -114 51 -66 98 -115 108 -115 15 -1 17 13 17 150 0 138 -1
150 -17 147 -16 -3 -18 -16 -17 -116 0 -61 -2 -112 -5 -112 -4 0 -49 52 -101
115 -51 63 -99 115 -107 115 -10 0 -13 -32 -13 -150z"/>
<path d="M8614 5220 c-41 -13 -91 -70 -99 -114 -24 -127 139 -225 251 -151 20
13 24 23 24 70 0 42 -3 55 -15 55 -11 0 -15 -12 -15 -50 0 -57 -14 -70 -80
-70 -81 0 -130 45 -130 120 0 25 7 56 16 68 34 49 120 67 178 37 40 -21 58 -3
22 21 -32 20 -108 27 -152 14z"/>
<path d="M8974 5220 c-41 -13 -91 -70 -99 -114 -24 -127 139 -225 251 -151 20
13 24 23 24 70 0 42 -3 55 -15 55 -11 0 -15 -12 -15 -50 0 -57 -14 -70 -80
-70 -82 0 -130 45 -130 122 0 38 6 54 28 79 24 27 37 33 84 37 42 3 62 0 82
-13 19 -13 30 -15 38 -7 30 30 -101 62 -168 42z"/>
<path d="M9260 5125 c0 -77 4 -114 16 -136 39 -76 179 -76 218 0 23 43 23 241
1 241 -12 0 -15 -17 -15 -94 0 -138 -19 -175 -92 -176 -81 0 -98 29 -98 170 0
82 -3 100 -15 100 -12 0 -15 -18 -15 -105z"/>
<path d="M9640 5080 l0 -151 100 3 c124 4 134 22 15 26 l-85 3 0 134 c0 113
-2 135 -15 135 -13 0 -15 -23 -15 -150z"/>
<path d="M13220 5080 c0 -127 2 -150 15 -150 13 0 15 23 15 150 0 127 -2 150
-15 150 -13 0 -15 -23 -15 -150z"/>
<path d="M13380 5080 c0 -127 2 -150 15 -150 12 0 15 19 15 115 0 63 3 115 8
115 4 0 48 -52 97 -114 51 -66 98 -115 108 -115 15 -1 17 13 17 149 0 136 -2
150 -17 150 -16 0 -18 -11 -15 -115 2 -68 -1 -115 -6 -115 -5 0 -51 52 -102
115 -51 63 -99 115 -107 115 -10 0 -13 -31 -13 -150z"/>
<path d="M13710 5215 c0 -12 13 -15 55 -15 l55 0 0 -135 c0 -113 2 -135 15
-135 13 0 15 22 15 135 l0 135 55 0 c42 0 55 3 55 15 0 13 -21 15 -125 15
-104 0 -125 -2 -125 -15z"/>
<path d="M14040 5080 l0 -150 110 0 c91 0 110 3 110 15 0 12 -17 15 -96 15
l-95 0 3 53 3 52 78 3 c59 2 77 6 77 17 0 12 -17 15 -80 15 l-80 0 0 50 0 50
90 0 c73 0 90 3 90 15 0 12 -18 15 -105 15 l-105 0 0 -150z"/>
<path d="M14425 5216 c-69 -31 -107 -113 -85 -181 30 -92 162 -134 248 -79 18
12 22 23 22 69 0 42 -3 55 -15 55 -11 0 -15 -12 -15 -50 0 -45 -3 -52 -26 -60
-60 -23 -136 -4 -168 42 -9 12 -16 43 -16 68 0 25 7 56 16 68 34 49 120 67
178 37 40 -21 58 -3 21 21 -35 23 -121 28 -160 10z"/>
<path d="M14720 5080 c0 -127 2 -150 15 -150 11 0 15 12 15 50 l0 50 58 0 57
0 33 -50 c17 -28 39 -50 47 -50 20 0 20 3 -16 54 l-32 45 32 31 c54 54 36 133
-36 161 -13 5 -58 9 -99 9 l-74 0 0 -150z m185 95 c33 -32 32 -68 -1 -94 -21
-16 -41 -21 -90 -21 l-64 0 0 70 0 70 65 0 c57 0 69 -3 90 -25z"/>
<path d="M15070 5080 c0 -127 2 -150 15 -150 13 0 15 23 15 150 0 127 -2 150
-15 150 -13 0 -15 -23 -15 -150z"/>
<path d="M15182 5218 c3 -8 26 -14 56 -16 l52 -3 0 -135 c0 -112 2 -134 15
-134 13 0 15 22 15 135 l0 135 55 0 c42 0 55 3 55 15 0 13 -21 15 -126 15 -96
0 -125 -3 -122 -12z"/>
<path d="M15575 5193 c-109 -224 -124 -263 -106 -263 13 0 24 13 35 40 l16 40
87 0 88 0 17 -40 c10 -24 23 -40 33 -40 9 0 15 4 13 8 -1 5 -32 73 -68 150
-43 94 -70 142 -81 142 -8 0 -24 -17 -34 -37z m73 -85 l31 -68 -70 0 c-38 0
-69 2 -69 5 0 18 65 144 71 138 4 -4 21 -38 37 -75z"/>
<path d="M15871 5219 c-53 -21 -67 -81 -28 -116 12 -11 49 -28 82 -38 55 -15
85 -35 85 -57 0 -4 -9 -17 -20 -28 -24 -24 -85 -27 -135 -6 -41 17 -53 7 -24
-20 16 -15 37 -19 91 -19 64 0 72 2 94 28 46 53 22 98 -64 123 -100 28 -126
59 -83 98 15 14 32 17 68 14 26 -3 56 -8 66 -12 12 -6 17 -4 17 7 0 30 -97 47
-149 26z"/>
<path d="M5595 4114 c-16 -2 -66 -9 -110 -15 -173 -23 -389 -115 -546 -234
-591 -444 -667 -1301 -164 -1843 261 -280 649 -431 1016 -394 319 33 578 155
793 376 284 292 407 707 326 1106 -37 188 -84 299 -190 459 -178 265 -463 456
-776 520 -97 20 -289 34 -349 25z m320 -101 c151 -28 335 -110 465 -206 206
-152 370 -394 437 -644 25 -90 27 -114 27 -293 1 -182 -1 -201 -26 -290 -77
-270 -220 -485 -426 -641 -87 -65 -306 -172 -407 -199 -173 -44 -359 -50 -533
-14 -160 32 -363 128 -497 234 -282 224 -450 597 -431 960 22 433 268 809 650
994 239 116 482 148 741 99z"/>
<path d="M11570 4113 c-154 -16 -282 -53 -425 -122 -370 -178 -629 -529 -692
-936 -18 -121 -13 -334 12 -445 118 -533 556 -923 1100 -980 295 -32 626 59
860 235 225 170 395 418 466 682 37 141 52 293 39 417 -37 363 -187 648 -461
876 -239 199 -591 306 -899 273z m241 -172 l23 -18 -17 -104 c-22 -133 -22
-145 3 -152 11 -3 22 -1 25 3 3 4 14 52 25 105 10 54 21 100 24 102 11 11 109
-72 147 -124 46 -62 64 -108 74 -185 6 -50 9 -55 38 -64 41 -12 57 -52 34 -87
-15 -24 -18 -24 -214 -29 -369 -10 -728 -5 -746 11 -37 30 -12 111 33 111 15
0 20 11 26 56 11 88 63 182 141 254 36 33 71 60 78 60 7 0 18 -39 29 -99 18
-106 31 -129 59 -108 16 11 15 20 -3 130 -12 65 -18 122 -14 128 12 20 49 28
130 28 65 1 86 -3 105 -18z m279 -670 c21 -65 -11 -170 -63 -204 -16 -10 -34
-45 -57 -108 l-33 -93 69 -65 c69 -66 70 -66 233 -121 l165 -55 61 -100 c179
-291 187 -307 173 -334 -25 -49 -232 -247 -312 -299 -328 -212 -738 -248
-1100 -96 -110 46 -241 131 -330 215 -77 71 -196 216 -196 237 0 13 40 73 117
177 12 17 27 39 33 50 41 79 109 182 131 198 18 13 47 20 85 22 78 4 290 68
323 97 84 76 81 67 45 170 -17 48 -37 84 -60 106 -44 43 -64 91 -64 153 0 95
-27 89 396 89 l371 0 13 -39z m-1196 -132 c5 -5 -3 -35 -20 -74 -23 -52 -33
-65 -49 -63 -16 3 -20 10 -19 43 1 22 8 57 17 78 14 33 20 37 39 32 13 -4 27
-11 32 -16z m-84 2 c0 -32 -26 -111 -36 -111 -32 0 -44 13 -44 50 0 58 8 70
46 70 19 0 34 -4 34 -9z m174 -12 c6 -5 3 -22 -7 -45 -14 -29 -22 -35 -45 -32
-24 3 -27 7 -25 36 1 43 20 64 47 56 12 -3 25 -10 30 -15z m68 -8 c4 -1 13 -8
22 -16 13 -14 13 -20 1 -56 -8 -22 -17 -44 -20 -49 -6 -9 -85 24 -85 35 0 2
10 24 21 49 15 29 27 43 38 41 9 -2 19 -4 23 -4z m1488 -41 c6 -11 12 -44 13
-72 2 -46 -1 -53 -18 -56 -16 -2 -25 9 -43 50 -31 75 -30 98 8 98 19 0 33 -7
40 -20z m88 -37 c2 -43 0 -54 -16 -62 -26 -14 -38 1 -51 59 -12 54 -8 62 32
58 31 -3 32 -5 35 -55z m-171 12 c10 -32 9 -37 -12 -51 -28 -19 -40 -13 -61
28 -21 40 -12 58 29 58 30 0 35 -4 44 -35z m-87 -17 c11 -24 20 -48 20 -54 0
-12 -68 -46 -79 -39 -5 2 -14 26 -21 51 -13 45 -12 48 9 66 35 27 50 22 71
-24z m-1611 -18 c10 0 26 -8 35 -19 16 -18 15 -20 -16 -40 -38 -24 -33 -28 8
-6 37 19 88 19 104 0 7 -9 15 -13 18 -10 3 2 -7 16 -22 30 -29 27 -31 52 -5
68 13 8 32 2 80 -23 35 -18 70 -37 76 -42 16 -13 9 -45 -24 -115 -26 -57 -24
-55 -156 -84 -70 -15 -97 -42 -176 -174 -63 -105 -88 -139 -94 -128 -25 44
-67 247 -67 323 0 42 4 51 29 69 16 12 32 21 36 21 14 0 38 33 67 93 43 90 48
94 71 63 10 -14 27 -26 36 -26z m1946 -80 c19 -38 46 -77 61 -87 14 -10 40
-30 57 -44 l30 -26 -11 -84 c-14 -94 -62 -261 -77 -266 -6 -2 -41 48 -78 110
-91 153 -110 170 -217 191 -92 17 -100 23 -132 100 -32 77 -27 87 56 129 83
42 91 43 100 21 11 -29 6 -44 -26 -75 l-33 -31 32 21 c39 26 63 26 116 1 40
-20 41 -20 19 -1 -12 11 -28 21 -34 23 -21 7 0 36 32 43 19 4 36 16 42 31 6
13 15 21 20 18 5 -3 24 -36 43 -74z"/>
<path d="M4499 1303 c-18 -45 -23 -78 -23 -148 0 -70 5 -103 23 -147 21 -55
24 -58 57 -58 19 0 34 2 34 4 0 2 -10 25 -22 52 -19 40 -23 67 -23 149 0 82 4
109 23 149 12 27 22 50 22 52 0 2 -15 4 -34 4 -33 0 -36 -3 -57 -57z"/>
<path d="M4930 1358 c0 -2 10 -28 22 -58 17 -42 22 -76 22 -145 0 -69 -5 -103
-22 -145 -12 -30 -22 -56 -22 -57 0 -2 15 -3 34 -3 30 0 35 4 50 44 40 105 38
243 -4 326 -17 33 -26 40 -50 40 -17 0 -30 -1 -30 -2z"/>
<path d="M10099 1303 c-18 -45 -23 -78 -23 -148 0 -70 5 -103 23 -147 21 -55
24 -58 58 -58 30 0 34 3 28 18 -31 70 -44 125 -45 183 0 63 22 164 41 184 17
17 9 25 -25 25 -33 0 -36 -3 -57 -57z"/>
<path d="M10530 1358 c0 -2 10 -28 22 -58 17 -42 22 -76 22 -145 0 -69 -5
-103 -22 -145 -12 -30 -22 -56 -22 -58 0 -2 15 -2 32 0 27 2 36 10 51 41 40
86 39 245 -3 327 -17 33 -26 40 -50 40 -17 0 -30 -1 -30 -2z"/>
<path d="M4694 1340 c-54 -21 -72 -100 -31 -137 12 -11 47 -28 78 -37 66 -19
88 -38 69 -61 -16 -19 -71 -19 -117 0 -29 12 -38 13 -45 3 -27 -43 15 -68 111
-68 99 0 152 57 119 127 -10 22 -28 33 -88 53 -83 28 -101 51 -55 72 21 9 36
9 72 -1 37 -9 48 -9 55 1 13 21 9 37 -11 48 -23 12 -127 12 -157 0z"/>
<path d="M5150 1195 l0 -156 117 3 118 3 0 25 c0 24 -2 25 -82 28 l-83 3 0 34
0 35 70 0 70 0 0 30 0 30 -70 0 -70 0 0 30 0 30 80 0 80 0 0 30 0 30 -115 0
-115 0 0 -155z"/>
<path d="M5470 1196 l0 -156 35 0 c34 0 35 1 35 40 0 39 1 40 34 40 28 0 38
-7 61 -40 24 -35 32 -40 67 -40 l39 0 -35 46 -36 46 30 28 c25 24 30 36 30 77
0 42 -5 54 -30 78 -29 28 -36 30 -130 33 l-100 4 0 -156z m178 82 c17 -17 15
-58 -5 -80 -11 -12 -30 -18 -60 -18 l-43 0 0 55 0 55 48 0 c26 0 53 -5 60 -12z"/>
<path d="M5781 1343 c0 -5 28 -73 63 -153 l62 -145 39 0 c37 0 38 1 65 65 15
36 44 103 64 150 20 46 36 86 36 87 0 2 -15 3 -34 3 -31 0 -35 -4 -60 -62 -15
-35 -37 -85 -50 -113 l-23 -49 -13 38 c-7 22 -28 72 -46 113 -32 71 -35 73
-69 73 -19 0 -35 -3 -34 -7z"/>
<path d="M6168 1195 l-3 -155 38 0 37 0 0 155 0 155 -35 0 -34 0 -3 -155z"/>
<path d="M6400 1333 c-102 -53 -108 -206 -11 -270 46 -31 141 -32 190 -2 l33
20 -23 25 c-20 22 -24 23 -39 9 -50 -45 -143 -16 -155 49 -9 46 1 90 27 112
27 25 99 25 125 2 19 -17 21 -17 42 6 l23 24 -28 18 c-39 26 -139 30 -184 7z"/>
<path d="M6680 1195 l0 -155 114 0 c108 0 114 1 119 22 3 12 4 25 1 30 -3 4
-41 8 -85 8 l-79 0 0 35 0 35 70 0 70 0 0 30 0 30 -70 0 -70 0 0 30 0 30 80 0
80 0 0 30 0 30 -115 0 -115 0 0 -155z"/>
<path d="M10230 1320 c0 -29 1 -30 50 -30 l50 0 0 -125 0 -125 35 0 35 0 0
125 0 125 50 0 c49 0 50 1 50 30 l0 30 -135 0 -135 0 0 -30z"/>
<path d="M10740 1195 l0 -155 115 0 115 0 0 30 0 30 -80 0 -80 0 0 35 0 35 70
0 70 0 0 30 0 30 -70 0 -70 0 0 30 0 30 80 0 80 0 0 30 0 30 -115 0 -115 0 0
-155z"/>
<path d="M11060 1195 l0 -155 35 0 35 0 0 85 c0 47 3 85 8 85 4 -1 38 -39 75
-85 58 -72 73 -85 98 -85 l29 0 0 155 0 155 -35 0 -34 0 -3 -92 -3 -93 -74 93
c-62 77 -79 92 -103 92 l-28 0 0 -155z"/>
<path d="M11471 1208 c-35 -79 -65 -149 -68 -155 -4 -9 6 -13 31 -13 32 0 38
4 47 30 11 30 12 30 85 30 72 0 74 -1 89 -30 13 -24 22 -30 50 -30 33 0 34 1
24 28 -5 15 -36 83 -67 152 -57 123 -58 125 -93 128 l-36 3 -62 -143z m119 16
c11 -25 20 -50 20 -55 0 -5 -21 -9 -46 -9 -25 0 -44 4 -42 8 2 4 12 29 23 55
11 26 21 47 23 47 1 0 12 -21 22 -46z"/>
<path d="M11856 1324 c-43 -30 -66 -75 -66 -134 0 -91 65 -150 165 -150 43 0
70 6 94 21 l33 20 -23 25 c-20 21 -24 22 -39 9 -62 -56 -160 -6 -160 81 0 85
100 133 161 78 14 -12 18 -11 38 10 l23 25 -33 20 c-51 32 -143 29 -193 -5z"/>
<path d="M12150 1195 l0 -155 35 0 35 0 0 155 0 155 -35 0 -35 0 0 -155z"/>
<path d="M12366 1324 c-91 -62 -88 -206 6 -264 45 -27 141 -27 186 0 66 41 93
140 57 210 -41 80 -170 108 -249 54z m172 -59 c49 -57 18 -157 -52 -171 -85
-15 -145 77 -102 155 31 56 111 64 154 16z"/>
<path d="M12717 1343 c-10 -10 -8 -162 3 -208 5 -24 21 -51 40 -67 25 -23 39
-28 85 -28 120 0 145 34 145 198 l0 112 -35 0 -35 0 0 -110 c0 -97 -2 -112
-20 -130 -11 -11 -31 -20 -45 -20 -14 0 -34 9 -45 20 -17 17 -20 34 -21 123
-1 56 -1 105 0 110 1 9 -63 10 -72 0z"/>
<path d="M13124 1341 c-30 -13 -54 -50 -54 -84 0 -40 38 -73 108 -92 65 -18
80 -35 56 -60 -19 -19 -56 -19 -109 0 -30 11 -41 11 -47 2 -26 -41 15 -67 109
-67 66 0 106 19 123 59 25 62 -5 99 -101 123 -63 16 -84 42 -54 64 19 15 58
14 112 -1 16 -5 23 -2 28 15 4 12 2 27 -4 33 -14 14 -139 20 -167 8z"/>
<path d="M4460 690 c0 -125 2 -150 15 -150 12 0 15 22 17 118 l3 117 29 -50
c57 -98 88 -145 97 -145 4 0 34 44 66 97 l58 97 3 -117 c2 -95 5 -117 17 -117
13 0 15 25 15 150 0 119 -3 150 -13 150 -8 0 -42 -47 -76 -105 -34 -58 -65
-105 -70 -105 -5 0 -37 47 -71 105 -34 58 -68 105 -76 105 -11 0 -14 -28 -14
-150z"/>
<path d="M4910 690 l0 -150 110 0 c91 0 110 3 110 15 0 12 -17 15 -95 15 l-95
0 0 55 0 55 80 0 c64 0 80 3 80 15 0 12 -16 15 -80 15 l-80 0 0 50 0 50 90 0
c73 0 90 3 90 15 0 12 -18 15 -105 15 l-105 0 0 -150z"/>
<path d="M5230 690 l0 -150 106 0 c80 0 105 3 102 13 -3 8 -33 13 -91 15 l-87
3 0 134 c0 113 -2 135 -15 135 -13 0 -15 -23 -15 -150z"/>
<path d="M5581 798 c-10 -24 -39 -87 -65 -142 -50 -108 -53 -116 -32 -116 8 0
21 18 30 40 l16 40 87 0 88 0 17 -40 c10 -24 23 -40 33 -40 20 0 24 -10 -55
159 -73 158 -88 170 -119 99z m78 -80 l30 -68 -70 0 c-39 0 -69 4 -67 8 39 94
63 141 69 135 4 -4 21 -38 38 -75z"/>
<path d="M5813 826 c3 -8 28 -50 56 -95 45 -72 51 -87 51 -136 0 -48 2 -55 20
-55 18 0 20 7 20 57 0 52 5 63 60 150 47 72 56 93 42 93 -11 0 -35 -29 -66
-80 -27 -44 -52 -80 -56 -80 -4 0 -29 36 -56 80 -27 44 -55 80 -63 80 -7 0
-11 -6 -8 -14z"/>
<path d="M6235 803 c-71 -150 -115 -246 -115 -254 0 -25 29 -4 43 31 l15 40
90 0 89 0 16 -40 c9 -24 22 -40 32 -40 20 0 24 -10 -55 159 -71 153 -86 167
-115 104z m74 -85 l30 -68 -70 0 c-39 0 -69 4 -67 8 39 94 63 141 69 135 4 -4
21 -38 38 -75z"/>
<path d="M6500 690 c0 -127 2 -150 15 -150 12 0 15 20 15 116 0 64 4 114 9
112 11 -4 172 -199 178 -215 3 -7 14 -13 24 -13 18 0 19 9 19 150 0 136 -2
150 -17 150 -16 0 -18 -10 -15 -101 2 -56 0 -108 -3 -118 -7 -18 0 -26 -124
128 -40 50 -80 91 -87 91 -11 0 -14 -29 -14 -150z"/>
<path d="M6880 690 c0 -127 2 -150 15 -150 13 0 15 23 15 150 0 127 -2 150
-15 150 -13 0 -15 -23 -15 -150z"/>
<path d="M11110 829 c-70 -29 -110 -106 -91 -177 25 -92 130 -136 231 -96 l40
16 0 59 c0 46 -3 59 -15 59 -11 0 -15 -12 -15 -50 0 -61 -18 -74 -98 -68 -47
4 -60 10 -84 37 -40 45 -40 117 0 162 35 40 111 51 163 25 42 -21 62 -5 24 20
-32 21 -119 28 -155 13z"/>
<path d="M11400 690 c0 -127 2 -150 15 -150 13 0 15 23 15 150 0 127 -2 150
-15 150 -13 0 -15 -23 -15 -150z"/>
<path d="M11630 829 c-40 -16 -80 -60 -91 -101 -29 -108 70 -205 187 -183 76
14 84 22 84 87 0 45 -3 58 -15 58 -11 0 -15 -12 -15 -50 0 -61 -18 -74 -98
-68 -47 4 -60 10 -84 37 -40 45 -40 117 0 162 35 40 111 51 163 25 35 -17 45
-15 36 8 -12 29 -116 45 -167 25z"/>
<path d="M11920 690 c0 -127 2 -150 15 -150 13 0 15 23 15 150 0 127 -2 150
-15 150 -13 0 -15 -23 -15 -150z"/>
<path d="M12080 690 c0 -127 2 -150 15 -150 12 0 15 14 15 70 l0 70 100 0 100
0 0 -70 c0 -56 3 -70 15 -70 13 0 15 23 15 150 0 127 -2 150 -15 150 -12 0
-15 -14 -15 -65 l0 -65 -100 0 -100 0 0 65 c0 51 -3 65 -15 65 -13 0 -15 -23
-15 -150z"/>
</g>
</svg>
